<?xml version="1.0" encoding="utf-8"?>
<!-- Generator: Adobe Illustrator 25.1.0, SVG Export Plug-In . SVG Version: 6.00 Build 0)  -->
<svg version="1.1" id="Layer_1" xmlns="http://www.w3.org/2000/svg" xmlns:xlink="http://www.w3.org/1999/xlink" x="0px" y="0px"
	 viewBox="0 0 500 500" style="enable-background:new 0 0 500 500;" xml:space="preserve">
<style type="text/css">
	.st0{fill:#572D7F;}
	.st1{fill:#FFFFFF;}
</style>
<g>
	<path class="st0" d="M705.7,219.96l-5.33,5.84v14.2H687.4v-53.84h12.98v23.74l4.51-6.84l11.61-16.9h16.05l-18.19,23.81l18.19,30.03
		h-15.38L705.7,219.96z"/>
	<path class="st0" d="M781.02,186.16v35.24c0,3.99-0.85,7.45-2.55,10.37c-1.7,2.92-4.14,5.15-7.32,6.68
		c-3.18,1.53-6.94,2.29-11.28,2.29c-6.56,0-11.72-1.7-15.49-5.1c-3.77-3.4-5.69-8.06-5.77-13.98v-35.5h13.05v35.76
		c0.15,5.89,2.88,8.84,8.21,8.84c2.69,0,4.72-0.74,6.1-2.22c1.38-1.48,2.07-3.88,2.07-7.21v-35.17H781.02z"/>
	<path class="st0" d="M792.08,240.01v-53.84h17.34c4.76,0,9.04,1.08,12.83,3.24c3.8,2.16,6.76,5.2,8.89,9.13
		c2.13,3.93,3.21,8.34,3.24,13.22v2.48c0,4.93-1.04,9.35-3.12,13.26c-2.08,3.91-5.02,6.96-8.8,9.17c-3.78,2.21-8.01,3.32-12.67,3.35
		H792.08z M805.06,196.18v33.84h4.51c3.72,0,6.58-1.32,8.58-3.97c2-2.65,3-6.59,3-11.82v-2.33c0-5.2-1-9.12-3-11.76
		c-2-2.64-4.91-3.96-8.73-3.96H805.06z"/>
	<path class="st0" d="M873.08,229.95H855.3l-3.11,10.06h-13.87l19.75-53.84h12.2l19.9,53.84h-13.94L873.08,229.95z M858.4,219.93
		h11.58l-5.81-18.67L858.4,219.93z"/>
	<path class="st0" d="M700.38,294.83v18.27H687.4v-53.84h21.48c4.12,0,7.76,0.76,10.93,2.27c3.17,1.52,5.62,3.67,7.36,6.47
		c1.74,2.8,2.61,5.97,2.61,9.52c0,5.25-1.88,9.45-5.64,12.59c-3.76,3.14-8.92,4.71-15.48,4.71H700.38z M700.38,284.81h8.51
		c2.51,0,4.43-0.63,5.75-1.88c1.32-1.26,1.98-3.03,1.98-5.33c0-2.51-0.68-4.52-2.03-6.03c-1.36-1.5-3.21-2.27-5.55-2.29h-8.65
		V284.81z"/>
	<path class="st0" d="M763.64,303.04h-17.79l-3.11,10.06h-13.87l19.75-53.84h12.2l19.89,53.84h-13.94L763.64,303.04z M748.96,293.02
		h11.58l-5.81-18.67L748.96,293.02z"/>
	<path class="st0" d="M831.16,294.87c-0.17,3.75-1.18,7.06-3.03,9.93c-1.85,2.87-4.44,5.1-7.78,6.68
		c-3.34,1.58-7.16,2.37-11.44,2.37c-7.08,0-12.65-2.31-16.71-6.92c-4.07-4.61-6.1-11.12-6.1-19.52v-2.66
		c0-5.28,0.92-9.89,2.75-13.85c1.84-3.96,4.48-7.01,7.93-9.17c3.45-2.16,7.44-3.24,11.98-3.24c6.53,0,11.78,1.72,15.75,5.16
		c3.97,3.44,6.22,8.18,6.77,14.22h-12.94c-0.1-3.28-0.93-5.63-2.48-7.06c-1.55-1.43-3.92-2.14-7.1-2.14c-3.23,0-5.6,1.21-7.1,3.62
		c-1.5,2.42-2.29,6.27-2.37,11.58v3.81c0,5.74,0.72,9.85,2.16,12.31c1.44,2.47,3.92,3.7,7.45,3.7c2.98,0,5.26-0.7,6.84-2.11
		c1.58-1.41,2.42-3.64,2.52-6.69H831.16z"/>
	<path class="st0" d="M886.75,313.1h-12.9v-22.48h-19.12v22.48h-12.98v-53.84h12.98v21.37h19.12v-21.37h12.9V313.1z"/>
</g>
<rect x="-0.38" y="714.07" class="st0" width="500.27" height="500.27"/>
<g>
	<path class="st1" d="M270.12,1068.71l-5.49,6.02v14.64h-13.38v-55.51h13.38v24.48l4.65-7.05l11.97-17.42h16.54l-18.76,24.55
		l18.76,30.96h-15.86L270.12,1068.71z"/>
	<path class="st1" d="M347.77,1033.86v36.33c0,4.12-0.88,7.68-2.63,10.69s-4.27,5.31-7.55,6.88c-3.28,1.58-7.16,2.36-11.63,2.36
		c-6.76,0-12.08-1.75-15.97-5.26c-3.89-3.51-5.87-8.31-5.95-14.41v-36.6h13.46v36.87c0.15,6.07,2.97,9.11,8.46,9.11
		c2.77,0,4.87-0.76,6.29-2.29c1.42-1.52,2.14-4,2.14-7.43v-36.26H347.77z"/>
	<path class="st1" d="M359.16,1089.37v-55.51h17.88c4.91,0,9.32,1.11,13.23,3.34c3.91,2.22,6.97,5.36,9.17,9.42s3.31,8.6,3.34,13.63
		v2.55c0,5.08-1.07,9.64-3.22,13.67c-2.15,4.03-5.17,7.18-9.07,9.45c-3.9,2.28-8.25,3.43-13.06,3.45H359.16z M372.54,1044.2v34.88
		h4.65c3.84,0,6.79-1.37,8.85-4.1c2.06-2.73,3.09-6.79,3.09-12.18v-2.4c0-5.36-1.03-9.4-3.09-12.12c-2.06-2.72-5.06-4.08-9-4.08
		H372.54z"/>
	<path class="st1" d="M442.68,1079h-18.34l-3.2,10.37h-14.3l20.36-55.51h12.58l20.51,55.51h-14.37L442.68,1079z M427.54,1068.67
		h11.93l-5.99-19.25L427.54,1068.67z"/>
	<path class="st1" d="M264.63,1145.89v18.83h-13.38v-55.51h22.15c4.24,0,8,0.78,11.27,2.34c3.27,1.56,5.79,3.79,7.59,6.67
		c1.79,2.88,2.69,6.16,2.69,9.82c0,5.41-1.94,9.74-5.81,12.98c-3.88,3.24-9.19,4.86-15.95,4.86H264.63z M264.63,1135.56h8.77
		c2.59,0,4.57-0.65,5.93-1.94c1.36-1.3,2.04-3.13,2.04-5.49c0-2.59-0.7-4.66-2.1-6.21c-1.4-1.55-3.3-2.34-5.72-2.36h-8.92V1135.56z"
		/>
	<path class="st1" d="M329.85,1154.36h-18.34l-3.2,10.37h-14.3l20.36-55.51h12.58l20.51,55.51h-14.37L329.85,1154.36z
		 M314.72,1144.02h11.93l-5.99-19.25L314.72,1144.02z"/>
	<path class="st1" d="M399.46,1145.93c-0.18,3.86-1.22,7.28-3.13,10.24c-1.91,2.96-4.58,5.26-8.03,6.88
		c-3.44,1.63-7.38,2.44-11.8,2.44c-7.29,0-13.04-2.38-17.23-7.13c-4.19-4.75-6.29-11.46-6.29-20.13v-2.75
		c0-5.44,0.95-10.2,2.84-14.28c1.89-4.08,4.62-7.23,8.18-9.45c3.56-2.22,7.67-3.34,12.35-3.34c6.73,0,12.15,1.77,16.24,5.32
		c4.09,3.55,6.42,8.43,6.98,14.66h-13.34c-0.1-3.38-0.95-5.81-2.56-7.28c-1.6-1.47-4.04-2.21-7.32-2.21c-3.33,0-5.77,1.25-7.32,3.74
		c-1.55,2.49-2.36,6.47-2.44,11.93v3.93c0,5.92,0.74,10.15,2.23,12.7c1.49,2.54,4.05,3.81,7.68,3.81c3.07,0,5.43-0.72,7.05-2.17
		c1.63-1.45,2.49-3.75,2.59-6.9H399.46z"/>
	<path class="st1" d="M456.76,1164.72h-13.3v-23.18h-19.71v23.18h-13.38v-55.51h13.38v22.04h19.71v-22.04h13.3V1164.72z"/>
</g>
<rect x="-0.38" y="-0.27" class="st0" width="500.27" height="500.27"/>
<g>
	<path class="st1" d="M270.12,354.37l-5.49,6.02v14.64h-13.38v-55.51h13.38V344l4.65-7.05l11.97-17.42h16.54l-18.76,24.55
		l18.76,30.96h-15.86L270.12,354.37z"/>
	<path class="st1" d="M347.77,319.53v36.33c0,4.12-0.88,7.68-2.63,10.69s-4.27,5.31-7.55,6.88c-3.28,1.58-7.16,2.36-11.63,2.36
		c-6.76,0-12.08-1.75-15.97-5.26s-5.87-8.31-5.95-14.41v-36.6h13.46v36.87c0.15,6.07,2.97,9.11,8.46,9.11
		c2.77,0,4.87-0.76,6.29-2.29c1.42-1.52,2.14-4,2.14-7.43v-36.26H347.77z"/>
	<path class="st1" d="M359.16,375.03v-55.51h17.88c4.91,0,9.32,1.11,13.23,3.34c3.91,2.22,6.97,5.36,9.17,9.42s3.31,8.6,3.34,13.63
		v2.55c0,5.08-1.07,9.64-3.22,13.67c-2.15,4.03-5.17,7.18-9.07,9.45c-3.9,2.28-8.25,3.43-13.06,3.45H359.16z M372.54,329.86v34.88
		h4.65c3.84,0,6.79-1.37,8.85-4.1c2.06-2.73,3.09-6.79,3.09-12.18v-2.4c0-5.36-1.03-9.4-3.09-12.12c-2.06-2.72-5.06-4.08-9-4.08
		H372.54z"/>
	<path class="st1" d="M442.68,364.67h-18.34l-3.2,10.37h-14.3l20.36-55.51h12.58l20.51,55.51h-14.37L442.68,364.67z M427.54,354.33
		h11.93l-5.99-19.25L427.54,354.33z"/>
	<path class="st1" d="M264.63,431.55v18.83h-13.38v-55.51h22.15c4.24,0,8,0.78,11.27,2.34c3.27,1.56,5.79,3.79,7.59,6.67
		c1.79,2.88,2.69,6.16,2.69,9.82c0,5.41-1.94,9.74-5.81,12.98c-3.88,3.24-9.19,4.86-15.95,4.86H264.63z M264.63,421.22h8.77
		c2.59,0,4.57-0.65,5.93-1.94c1.36-1.3,2.04-3.13,2.04-5.49c0-2.59-0.7-4.66-2.1-6.21c-1.4-1.55-3.3-2.34-5.72-2.36h-8.92V421.22z"
		/>
	<path class="st1" d="M329.85,440.02h-18.34l-3.2,10.37h-14.3l20.36-55.51h12.58l20.51,55.51h-14.37L329.85,440.02z M314.72,429.69
		h11.93l-5.99-19.25L314.72,429.69z"/>
	<path class="st1" d="M399.46,431.59c-0.18,3.86-1.22,7.28-3.13,10.24c-1.91,2.96-4.58,5.26-8.03,6.88
		c-3.44,1.63-7.38,2.44-11.8,2.44c-7.29,0-13.04-2.38-17.23-7.13c-4.19-4.75-6.29-11.46-6.29-20.13v-2.75
		c0-5.44,0.95-10.2,2.84-14.28c1.89-4.08,4.62-7.23,8.18-9.45c3.56-2.22,7.67-3.34,12.35-3.34c6.73,0,12.15,1.77,16.24,5.32
		c4.09,3.55,6.42,8.43,6.98,14.66h-13.34c-0.1-3.38-0.95-5.81-2.56-7.28c-1.6-1.47-4.04-2.21-7.32-2.21c-3.33,0-5.77,1.25-7.32,3.74
		c-1.55,2.49-2.36,6.47-2.44,11.93v3.93c0,5.92,0.74,10.15,2.23,12.7c1.49,2.54,4.05,3.81,7.68,3.81c3.07,0,5.43-0.72,7.05-2.17
		c1.63-1.45,2.49-3.75,2.59-6.9H399.46z"/>
	<path class="st1" d="M456.76,450.39h-13.3v-23.18h-19.71v23.18h-13.38v-55.51h13.38v22.04h19.71v-22.04h13.3V450.39z"/>
</g>
<text transform="matrix(1 0 0 1 538.7842 1089.3721)"><tspan x="0" y="0" style="fill:#161515; font-family:'Roboto-Black'; font-size:58.5308px;">Welcome to  </tspan><tspan x="0" y="70.24" style="fill:#161515; font-family:'Roboto-Black'; font-size:58.5308px;">KUDAPACH_TODOLIST!</tspan></text>
</svg>
