<?xml version="1.0" encoding="UTF-8"?>
<svg width="40px" height="40px" viewBox="0 0 40 40" version="1.1" xmlns="http://www.w3.org/2000/svg" xmlns:xlink="http://www.w3.org/1999/xlink">
    <title>Group 4</title>
    <defs>
        <filter id="filter-1">
            <feColorMatrix in="SourceGraphic" type="matrix" values="0 0 0 0 0.572549 0 0 0 0 0.572549 0 0 0 0 0.654902 0 0 0 1.000000 0"></feColorMatrix>
        </filter>
    </defs>
    <g id="Page-1" stroke="none" stroke-width="1" fill="none" fill-rule="evenodd">
        <g id="todo---main" transform="translate(-1820.000000, -20.000000)">
            <g id="Group-4" transform="translate(1820.000000, 20.000000)">
                <path d="M20,0 C8.96,0 0,8.96 0,20 C0,31.04 8.96,40 20,40 C31.04,40 40,31.04 40,20 C40,8.96 31.04,0 20,0 Z" id="Path" fill="#F3F3F4" fill-rule="nonzero"></path>
                <g filter="url(#filter-1)" id="settings-24px">
                    <g transform="translate(6.000000, 6.000000)">
                        <polygon id="Path" points="0 0 28 0 28 28 0 28"></polygon>
                        <path d="M22.33,15.0966667 C22.3766667,14.7466667 22.4,14.385 22.4,14 C22.4,13.6266667 22.3766667,13.2533333 22.3183333,12.9033333 L24.6866667,11.06 C24.8966667,10.8966667 24.955,10.5816667 24.8266667,10.3483333 L22.5866667,6.475 C22.4466667,6.21833333 22.155,6.13666667 21.8983333,6.21833333 L19.11,7.33833333 C18.5266667,6.895 17.9083333,6.52166667 17.22,6.24166667 L16.8,3.27833333 C16.7533333,2.99833333 16.52,2.8 16.24,2.8 L11.76,2.8 C11.48,2.8 11.2583333,2.99833333 11.2116667,3.27833333 L10.7916667,6.24166667 C10.1033333,6.52166667 9.47333333,6.90666667 8.90166667,7.33833333 L6.11333333,6.21833333 C5.85666667,6.125 5.565,6.21833333 5.425,6.475 L3.19666667,10.3483333 C3.05666667,10.5933333 3.10333333,10.8966667 3.33666667,11.06 L5.705,12.9033333 C5.64666667,13.2533333 5.6,13.6383333 5.6,14 C5.6,14.3616667 5.62333333,14.7466667 5.68166667,15.0966667 L3.31333333,16.94 C3.10333333,17.1033333 3.045,17.4183333 3.17333333,17.6516667 L5.41333333,21.525 C5.55333333,21.7816667 5.845,21.8633333 6.10166667,21.7816667 L8.89,20.6616667 C9.47333333,21.105 10.0916667,21.4783333 10.78,21.7583333 L11.2,24.7216667 C11.2583333,25.0016667 11.48,25.2 11.76,25.2 L16.24,25.2 C16.52,25.2 16.7533333,25.0016667 16.7883333,24.7216667 L17.2083333,21.7583333 C17.8966667,21.4783333 18.5266667,21.105 19.0983333,20.6616667 L21.8866667,21.7816667 C22.1433333,21.875 22.435,21.7816667 22.575,21.525 L24.815,17.6516667 C24.955,17.395 24.8966667,17.1033333 24.675,16.94 L22.33,15.0966667 Z M14,18.2 C11.69,18.2 9.8,16.31 9.8,14 C9.8,11.69 11.69,9.8 14,9.8 C16.31,9.8 18.2,11.69 18.2,14 C18.2,16.31 16.31,18.2 14,18.2 Z" id="Shape" fill="#000000" fill-rule="nonzero"></path>
                    </g>
                </g>
            </g>
        </g>
    </g>
</svg>